<svg xmlns="http://www.w3.org/2000/svg" xmlns:xlink="http://www.w3.org/1999/xlink" width="1640" zoomAndPan="magnify" viewBox="0 0 1230 693.000001" height="924" preserveAspectRatio="xMidYMid meet" version="1.0"><defs><g/><clipPath id="542a0d94ae"><path d="M 475.144531 111.441406 L 793.804688 111.441406 L 793.804688 421.84375 L 475.144531 421.84375 Z M 475.144531 111.441406 " clip-rule="nonzero"/></clipPath><clipPath id="73a394715c"><path d="M 489.617188 196.347656 C 497.085938 272.78125 534.664062 332.527344 610.828125 353.351562 C 567.425781 330.441406 545.421875 293.765625 544.78125 243.410156 C 550.082031 244.613281 552.128906 245.054688 557.429688 246.378906 C 557.828125 298.460938 600.589844 338.0625 645.875 355.757812 C 619.257812 366.269531 584.328125 360.210938 559.597656 346.371094 C 507.882812 317.601562 468.378906 249.390625 477.128906 157.867188 C 496.683594 189.644531 519.285156 206.054688 546.507812 215.042969 C 549.519531 191.289062 557.269531 162.5625 568.1875 133.753906 C 570.917969 125.847656 573.96875 118.34375 577.460938 111.402344 C 591.515625 165.128906 614.722656 201.5625 647.039062 220.582031 C 618.816406 219.378906 590.109375 186.757812 576.902344 155.941406 C 569.554688 174.238281 562.886719 197.832031 561.242188 218.253906 L 569.671875 220.660156 C 657.480469 244.976562 693.855469 292.523438 680.246094 346.289062 C 708.949219 333.769531 710.394531 285.621094 717.824219 255.6875 C 725.492188 224.953125 735.691406 199.714844 759.5 190.328125 C 732.316406 163.484375 678.238281 169.824219 655.472656 232.054688 C 666.433594 166.535156 723.726562 146.914062 762.347656 176.082031 C 777.082031 185.632812 785.714844 196.789062 793.0625 197.507812 C 740.226562 195.742188 734.042969 238.996094 724.96875 291.398438 C 719.910156 320.609375 711.601562 360.734375 675.144531 362.300781 C 649.25 426.980469 576.136719 435.125 524.304688 405.230469 C 576.578125 419.234375 642.542969 415.746094 661.054688 351.503906 C 667.839844 327.871094 666.472656 303.515625 650.09375 282.652344 C 634.234375 262.46875 605.046875 248.867188 581.316406 241.605469 C 543.617188 232.617188 490.21875 209.585938 489.617188 196.347656 Z M 489.617188 196.347656 " clip-rule="evenodd"/></clipPath><linearGradient x1="37.62853" gradientTransform="matrix(4.014906, 0, 0, 4.012413, 475.885432, 111.443148)" y1="-2.843896" x2="31.963378" gradientUnits="userSpaceOnUse" y2="79.569875" id="53ae60fe8f"><stop stop-opacity="1" stop-color="rgb(49.398804%, 85.099792%, 34.098816%)" offset="0"/><stop stop-opacity="1" stop-color="rgb(49.398804%, 85.099792%, 34.098816%)" offset="0.0657365"/><stop stop-opacity="1" stop-color="rgb(49.398804%, 85.099792%, 34.098816%)" offset="0.25"/><stop stop-opacity="1" stop-color="rgb(49.398804%, 85.099792%, 34.098816%)" offset="0.28125"/><stop stop-opacity="1" stop-color="rgb(49.398804%, 85.099792%, 34.098816%)" offset="0.296875"/><stop stop-opacity="1" stop-color="rgb(49.328613%, 85.115051%, 34.393311%)" offset="0.300781"/><stop stop-opacity="1" stop-color="rgb(49.259949%, 85.131836%, 34.687805%)" offset="0.304688"/><stop stop-opacity="1" stop-color="rgb(49.177551%, 85.150146%, 35.03418%)" offset="0.308594"/><stop stop-opacity="1" stop-color="rgb(49.095154%, 85.169983%, 35.38208%)" offset="0.3125"/><stop stop-opacity="1" stop-color="rgb(49.012756%, 85.188293%, 35.728455%)" offset="0.316406"/><stop stop-opacity="1" stop-color="rgb(48.930359%, 85.20813%, 36.074829%)" offset="0.320312"/><stop stop-opacity="1" stop-color="rgb(48.847961%, 85.22644%, 36.421204%)" offset="0.324219"/><stop stop-opacity="1" stop-color="rgb(48.76709%, 85.246277%, 36.769104%)" offset="0.328125"/><stop stop-opacity="1" stop-color="rgb(48.684692%, 85.264587%, 37.115479%)" offset="0.332031"/><stop stop-opacity="1" stop-color="rgb(48.602295%, 85.284424%, 37.461853%)" offset="0.335938"/><stop stop-opacity="1" stop-color="rgb(48.519897%, 85.30426%, 37.808228%)" offset="0.339844"/><stop stop-opacity="1" stop-color="rgb(48.4375%, 85.324097%, 38.156128%)" offset="0.34375"/><stop stop-opacity="1" stop-color="rgb(48.355103%, 85.342407%, 38.502502%)" offset="0.347656"/><stop stop-opacity="1" stop-color="rgb(48.272705%, 85.362244%, 38.848877%)" offset="0.351562"/><stop stop-opacity="1" stop-color="rgb(48.190308%, 85.380554%, 39.195251%)" offset="0.355469"/><stop stop-opacity="1" stop-color="rgb(48.109436%, 85.400391%, 39.543152%)" offset="0.359375"/><stop stop-opacity="1" stop-color="rgb(48.027039%, 85.418701%, 39.889526%)" offset="0.363281"/><stop stop-opacity="1" stop-color="rgb(47.944641%, 85.438538%, 40.235901%)" offset="0.367188"/><stop stop-opacity="1" stop-color="rgb(47.862244%, 85.456848%, 40.582275%)" offset="0.371094"/><stop stop-opacity="1" stop-color="rgb(47.779846%, 85.476685%, 40.930176%)" offset="0.375"/><stop stop-opacity="1" stop-color="rgb(47.697449%, 85.494995%, 41.27655%)" offset="0.378906"/><stop stop-opacity="1" stop-color="rgb(47.615051%, 85.514832%, 41.622925%)" offset="0.382812"/><stop stop-opacity="1" stop-color="rgb(47.532654%, 85.533142%, 41.969299%)" offset="0.386719"/><stop stop-opacity="1" stop-color="rgb(47.450256%, 85.552979%, 42.3172%)" offset="0.390625"/><stop stop-opacity="1" stop-color="rgb(47.367859%, 85.571289%, 42.663574%)" offset="0.394531"/><stop stop-opacity="1" stop-color="rgb(47.286987%, 85.591125%, 43.009949%)" offset="0.398438"/><stop stop-opacity="1" stop-color="rgb(47.20459%, 85.609436%, 43.356323%)" offset="0.402344"/><stop stop-opacity="1" stop-color="rgb(47.122192%, 85.629272%, 43.704224%)" offset="0.40625"/><stop stop-opacity="1" stop-color="rgb(47.039795%, 85.649109%, 44.050598%)" offset="0.410156"/><stop stop-opacity="1" stop-color="rgb(46.957397%, 85.668945%, 44.398499%)" offset="0.414062"/><stop stop-opacity="1" stop-color="rgb(46.875%, 85.687256%, 44.744873%)" offset="0.417969"/><stop stop-opacity="1" stop-color="rgb(46.792603%, 85.707092%, 45.091248%)" offset="0.421875"/><stop stop-opacity="1" stop-color="rgb(46.710205%, 85.725403%, 45.437622%)" offset="0.425781"/><stop stop-opacity="1" stop-color="rgb(46.629333%, 85.745239%, 45.785522%)" offset="0.429688"/><stop stop-opacity="1" stop-color="rgb(46.546936%, 85.76355%, 46.131897%)" offset="0.433594"/><stop stop-opacity="1" stop-color="rgb(46.464539%, 85.783386%, 46.478271%)" offset="0.4375"/><stop stop-opacity="1" stop-color="rgb(46.382141%, 85.801697%, 46.824646%)" offset="0.441406"/><stop stop-opacity="1" stop-color="rgb(46.299744%, 85.821533%, 47.172546%)" offset="0.445312"/><stop stop-opacity="1" stop-color="rgb(46.217346%, 85.839844%, 47.518921%)" offset="0.449219"/><stop stop-opacity="1" stop-color="rgb(46.134949%, 85.85968%, 47.865295%)" offset="0.453125"/><stop stop-opacity="1" stop-color="rgb(46.052551%, 85.877991%, 48.21167%)" offset="0.457031"/><stop stop-opacity="1" stop-color="rgb(45.97168%, 85.897827%, 48.55957%)" offset="0.460938"/><stop stop-opacity="1" stop-color="rgb(45.889282%, 85.916138%, 48.905945%)" offset="0.464844"/><stop stop-opacity="1" stop-color="rgb(45.806885%, 85.935974%, 49.252319%)" offset="0.46875"/><stop stop-opacity="1" stop-color="rgb(45.724487%, 85.955811%, 49.598694%)" offset="0.472656"/><stop stop-opacity="1" stop-color="rgb(45.64209%, 85.975647%, 49.946594%)" offset="0.476563"/><stop stop-opacity="1" stop-color="rgb(45.559692%, 85.993958%, 50.292969%)" offset="0.480469"/><stop stop-opacity="1" stop-color="rgb(45.477295%, 86.013794%, 50.639343%)" offset="0.484375"/><stop stop-opacity="1" stop-color="rgb(45.394897%, 86.032104%, 50.985718%)" offset="0.488281"/><stop stop-opacity="1" stop-color="rgb(45.314026%, 86.051941%, 51.333618%)" offset="0.492188"/><stop stop-opacity="1" stop-color="rgb(45.231628%, 86.070251%, 51.679993%)" offset="0.496094"/><stop stop-opacity="1" stop-color="rgb(45.149231%, 86.090088%, 52.026367%)" offset="0.5"/><stop stop-opacity="1" stop-color="rgb(45.066833%, 86.108398%, 52.372742%)" offset="0.503906"/><stop stop-opacity="1" stop-color="rgb(44.984436%, 86.128235%, 52.720642%)" offset="0.507812"/><stop stop-opacity="1" stop-color="rgb(44.902039%, 86.146545%, 53.067017%)" offset="0.511719"/><stop stop-opacity="1" stop-color="rgb(44.819641%, 86.166382%, 53.413391%)" offset="0.515625"/><stop stop-opacity="1" stop-color="rgb(44.737244%, 86.184692%, 53.759766%)" offset="0.519531"/><stop stop-opacity="1" stop-color="rgb(44.656372%, 86.204529%, 54.107666%)" offset="0.523438"/><stop stop-opacity="1" stop-color="rgb(44.573975%, 86.222839%, 54.454041%)" offset="0.527344"/><stop stop-opacity="1" stop-color="rgb(44.491577%, 86.242676%, 54.800415%)" offset="0.53125"/><stop stop-opacity="1" stop-color="rgb(44.40918%, 86.260986%, 55.14679%)" offset="0.535156"/><stop stop-opacity="1" stop-color="rgb(44.326782%, 86.280823%, 55.49469%)" offset="0.539062"/><stop stop-opacity="1" stop-color="rgb(44.244385%, 86.300659%, 55.841064%)" offset="0.542969"/><stop stop-opacity="1" stop-color="rgb(44.161987%, 86.320496%, 56.188965%)" offset="0.546875"/><stop stop-opacity="1" stop-color="rgb(44.07959%, 86.338806%, 56.535339%)" offset="0.550781"/><stop stop-opacity="1" stop-color="rgb(43.998718%, 86.358643%, 56.881714%)" offset="0.554688"/><stop stop-opacity="1" stop-color="rgb(43.916321%, 86.376953%, 57.228088%)" offset="0.558594"/><stop stop-opacity="1" stop-color="rgb(43.833923%, 86.39679%, 57.575989%)" offset="0.5625"/><stop stop-opacity="1" stop-color="rgb(43.751526%, 86.4151%, 57.922363%)" offset="0.566406"/><stop stop-opacity="1" stop-color="rgb(43.669128%, 86.434937%, 58.268738%)" offset="0.570312"/><stop stop-opacity="1" stop-color="rgb(43.586731%, 86.453247%, 58.615112%)" offset="0.574219"/><stop stop-opacity="1" stop-color="rgb(43.504333%, 86.473083%, 58.963013%)" offset="0.578125"/><stop stop-opacity="1" stop-color="rgb(43.421936%, 86.491394%, 59.309387%)" offset="0.582031"/><stop stop-opacity="1" stop-color="rgb(43.341064%, 86.51123%, 59.655762%)" offset="0.585938"/><stop stop-opacity="1" stop-color="rgb(43.258667%, 86.529541%, 60.002136%)" offset="0.589844"/><stop stop-opacity="1" stop-color="rgb(43.17627%, 86.549377%, 60.350037%)" offset="0.59375"/><stop stop-opacity="1" stop-color="rgb(43.093872%, 86.567688%, 60.696411%)" offset="0.597656"/><stop stop-opacity="1" stop-color="rgb(43.011475%, 86.587524%, 61.042786%)" offset="0.601563"/><stop stop-opacity="1" stop-color="rgb(42.929077%, 86.607361%, 61.38916%)" offset="0.605469"/><stop stop-opacity="1" stop-color="rgb(42.84668%, 86.627197%, 61.737061%)" offset="0.609375"/><stop stop-opacity="1" stop-color="rgb(42.764282%, 86.645508%, 62.083435%)" offset="0.613281"/><stop stop-opacity="1" stop-color="rgb(42.681885%, 86.665344%, 62.42981%)" offset="0.617188"/><stop stop-opacity="1" stop-color="rgb(42.599487%, 86.683655%, 62.776184%)" offset="0.621094"/><stop stop-opacity="1" stop-color="rgb(42.518616%, 86.703491%, 63.124084%)" offset="0.625"/><stop stop-opacity="1" stop-color="rgb(42.436218%, 86.721802%, 63.470459%)" offset="0.628906"/><stop stop-opacity="1" stop-color="rgb(42.353821%, 86.741638%, 63.816833%)" offset="0.632812"/><stop stop-opacity="1" stop-color="rgb(42.271423%, 86.759949%, 64.163208%)" offset="0.636719"/><stop stop-opacity="1" stop-color="rgb(42.189026%, 86.779785%, 64.511108%)" offset="0.640625"/><stop stop-opacity="1" stop-color="rgb(42.106628%, 86.798096%, 64.857483%)" offset="0.644531"/><stop stop-opacity="1" stop-color="rgb(42.024231%, 86.817932%, 65.203857%)" offset="0.648438"/><stop stop-opacity="1" stop-color="rgb(41.941833%, 86.836243%, 65.550232%)" offset="0.652344"/><stop stop-opacity="1" stop-color="rgb(41.860962%, 86.856079%, 65.898132%)" offset="0.65625"/><stop stop-opacity="1" stop-color="rgb(41.778564%, 86.87439%, 66.244507%)" offset="0.660156"/><stop stop-opacity="1" stop-color="rgb(41.696167%, 86.894226%, 66.590881%)" offset="0.664063"/><stop stop-opacity="1" stop-color="rgb(41.61377%, 86.912537%, 66.937256%)" offset="0.667969"/><stop stop-opacity="1" stop-color="rgb(41.531372%, 86.932373%, 67.285156%)" offset="0.671875"/><stop stop-opacity="1" stop-color="rgb(41.448975%, 86.952209%, 67.631531%)" offset="0.675781"/><stop stop-opacity="1" stop-color="rgb(41.366577%, 86.972046%, 67.979431%)" offset="0.679688"/><stop stop-opacity="1" stop-color="rgb(41.28418%, 86.990356%, 68.325806%)" offset="0.683594"/><stop stop-opacity="1" stop-color="rgb(41.203308%, 87.010193%, 68.67218%)" offset="0.6875"/><stop stop-opacity="1" stop-color="rgb(41.120911%, 87.028503%, 69.018555%)" offset="0.691406"/><stop stop-opacity="1" stop-color="rgb(41.038513%, 87.04834%, 69.366455%)" offset="0.695312"/><stop stop-opacity="1" stop-color="rgb(40.956116%, 87.06665%, 69.71283%)" offset="0.699219"/><stop stop-opacity="1" stop-color="rgb(40.873718%, 87.086487%, 70.059204%)" offset="0.703125"/><stop stop-opacity="1" stop-color="rgb(40.791321%, 87.104797%, 70.405579%)" offset="0.707031"/><stop stop-opacity="1" stop-color="rgb(40.708923%, 87.124634%, 70.753479%)" offset="0.710938"/><stop stop-opacity="1" stop-color="rgb(40.626526%, 87.142944%, 71.099854%)" offset="0.714844"/><stop stop-opacity="1" stop-color="rgb(40.545654%, 87.162781%, 71.446228%)" offset="0.71875"/><stop stop-opacity="1" stop-color="rgb(40.463257%, 87.181091%, 71.792603%)" offset="0.722656"/><stop stop-opacity="1" stop-color="rgb(40.380859%, 87.200928%, 72.140503%)" offset="0.726563"/><stop stop-opacity="1" stop-color="rgb(40.298462%, 87.219238%, 72.486877%)" offset="0.730469"/><stop stop-opacity="1" stop-color="rgb(40.216064%, 87.239075%, 72.833252%)" offset="0.734375"/><stop stop-opacity="1" stop-color="rgb(40.133667%, 87.257385%, 73.179626%)" offset="0.738281"/><stop stop-opacity="1" stop-color="rgb(40.05127%, 87.277222%, 73.527527%)" offset="0.742188"/><stop stop-opacity="1" stop-color="rgb(39.968872%, 87.297058%, 73.873901%)" offset="0.746094"/><stop stop-opacity="1" stop-color="rgb(39.888%, 87.316895%, 74.220276%)" offset="0.75"/><stop stop-opacity="1" stop-color="rgb(39.805603%, 87.335205%, 74.56665%)" offset="0.753906"/><stop stop-opacity="1" stop-color="rgb(39.723206%, 87.355042%, 74.914551%)" offset="0.757812"/><stop stop-opacity="1" stop-color="rgb(39.640808%, 87.373352%, 75.260925%)" offset="0.761719"/><stop stop-opacity="1" stop-color="rgb(39.558411%, 87.393188%, 75.6073%)" offset="0.765625"/><stop stop-opacity="1" stop-color="rgb(39.476013%, 87.411499%, 75.953674%)" offset="0.769531"/><stop stop-opacity="1" stop-color="rgb(39.393616%, 87.431335%, 76.301575%)" offset="0.773438"/><stop stop-opacity="1" stop-color="rgb(39.311218%, 87.449646%, 76.647949%)" offset="0.777344"/><stop stop-opacity="1" stop-color="rgb(39.230347%, 87.469482%, 76.994324%)" offset="0.78125"/><stop stop-opacity="1" stop-color="rgb(39.147949%, 87.487793%, 77.340698%)" offset="0.785156"/><stop stop-opacity="1" stop-color="rgb(39.065552%, 87.507629%, 77.688599%)" offset="0.789063"/><stop stop-opacity="1" stop-color="rgb(38.983154%, 87.52594%, 78.034973%)" offset="0.792969"/><stop stop-opacity="1" stop-color="rgb(38.900757%, 87.545776%, 78.381348%)" offset="0.796875"/><stop stop-opacity="1" stop-color="rgb(38.818359%, 87.564087%, 78.727722%)" offset="0.800781"/><stop stop-opacity="1" stop-color="rgb(38.735962%, 87.583923%, 79.075623%)" offset="0.804687"/><stop stop-opacity="1" stop-color="rgb(38.653564%, 87.60376%, 79.421997%)" offset="0.808594"/><stop stop-opacity="1" stop-color="rgb(38.572693%, 87.623596%, 79.768372%)" offset="0.8125"/><stop stop-opacity="1" stop-color="rgb(38.490295%, 87.641907%, 80.114746%)" offset="0.816406"/><stop stop-opacity="1" stop-color="rgb(38.407898%, 87.661743%, 80.462646%)" offset="0.820312"/><stop stop-opacity="1" stop-color="rgb(38.3255%, 87.680054%, 80.809021%)" offset="0.824219"/><stop stop-opacity="1" stop-color="rgb(38.243103%, 87.69989%, 81.156921%)" offset="0.828125"/><stop stop-opacity="1" stop-color="rgb(38.160706%, 87.718201%, 81.503296%)" offset="0.832031"/><stop stop-opacity="1" stop-color="rgb(38.078308%, 87.738037%, 81.84967%)" offset="0.835938"/><stop stop-opacity="1" stop-color="rgb(37.995911%, 87.756348%, 82.196045%)" offset="0.839844"/><stop stop-opacity="1" stop-color="rgb(37.913513%, 87.776184%, 82.543945%)" offset="0.84375"/><stop stop-opacity="1" stop-color="rgb(37.831116%, 87.794495%, 82.89032%)" offset="0.847656"/><stop stop-opacity="1" stop-color="rgb(37.750244%, 87.814331%, 83.236694%)" offset="0.851563"/><stop stop-opacity="1" stop-color="rgb(37.667847%, 87.832642%, 83.583069%)" offset="0.855469"/><stop stop-opacity="1" stop-color="rgb(37.585449%, 87.852478%, 83.930969%)" offset="0.859375"/><stop stop-opacity="1" stop-color="rgb(37.503052%, 87.870789%, 84.277344%)" offset="0.863281"/><stop stop-opacity="1" stop-color="rgb(37.420654%, 87.890625%, 84.623718%)" offset="0.867187"/><stop stop-opacity="1" stop-color="rgb(37.338257%, 87.908936%, 84.970093%)" offset="0.871094"/><stop stop-opacity="1" stop-color="rgb(37.255859%, 87.928772%, 85.317993%)" offset="0.875"/><stop stop-opacity="1" stop-color="rgb(37.173462%, 87.948608%, 85.664368%)" offset="0.878906"/><stop stop-opacity="1" stop-color="rgb(37.09259%, 87.968445%, 86.010742%)" offset="0.882812"/><stop stop-opacity="1" stop-color="rgb(37.010193%, 87.986755%, 86.357117%)" offset="0.886719"/><stop stop-opacity="1" stop-color="rgb(36.927795%, 88.006592%, 86.705017%)" offset="0.890625"/><stop stop-opacity="1" stop-color="rgb(36.845398%, 88.024902%, 87.051392%)" offset="0.894531"/><stop stop-opacity="1" stop-color="rgb(36.763%, 88.044739%, 87.397766%)" offset="0.898438"/><stop stop-opacity="1" stop-color="rgb(36.680603%, 88.063049%, 87.744141%)" offset="0.902344"/><stop stop-opacity="1" stop-color="rgb(36.598206%, 88.082886%, 88.092041%)" offset="0.90625"/><stop stop-opacity="1" stop-color="rgb(36.515808%, 88.101196%, 88.438416%)" offset="0.910156"/><stop stop-opacity="1" stop-color="rgb(36.434937%, 88.121033%, 88.78479%)" offset="0.914063"/><stop stop-opacity="1" stop-color="rgb(36.352539%, 88.139343%, 89.131165%)" offset="0.917969"/><stop stop-opacity="1" stop-color="rgb(36.270142%, 88.15918%, 89.479065%)" offset="0.921875"/><stop stop-opacity="1" stop-color="rgb(36.187744%, 88.17749%, 89.825439%)" offset="0.925781"/><stop stop-opacity="1" stop-color="rgb(36.105347%, 88.197327%, 90.171814%)" offset="0.929688"/><stop stop-opacity="1" stop-color="rgb(36.102295%, 88.197327%, 90.185547%)" offset="0.934263"/><stop stop-opacity="1" stop-color="rgb(36.099243%, 88.198853%, 90.19928%)" offset="0.9375"/><stop stop-opacity="1" stop-color="rgb(36.099243%, 88.198853%, 90.19928%)" offset="1"/></linearGradient></defs><g clip-path="url(#542a0d94ae)"><g clip-path="url(#73a394715c)"><path fill="url(#53ae60fe8f)" d="M 475.144531 111.441406 L 475.144531 421.84375 L 793.0625 421.84375 L 793.0625 111.441406 Z M 475.144531 111.441406 " fill-rule="nonzero"/></g></g><g fill="#ff66c4" fill-opacity="1"><g transform="translate(386.300872, 508.855375)"><g><path d="M 12 0 L 3.203125 0 L 3.203125 -55.984375 L 12 -55.984375 L 12 -31.984375 L 21.984375 -31.984375 L 21.984375 -55.984375 L 30.953125 -55.984375 L 30.953125 0 L 21.984375 0 L 21.984375 -23.984375 L 12 -23.984375 Z M 12 0 "/></g></g></g><g fill="#ff66c4" fill-opacity="1"><g transform="translate(431.636628, 508.855375)"><g><path d="M 11.59375 -55.984375 L 11.59375 -12.796875 C 11.59375 -10.765625 12.003906 -9.347656 12.828125 -8.546875 C 13.660156 -7.753906 14.769531 -7.359375 16.15625 -7.359375 C 17.539062 -7.359375 18.644531 -7.753906 19.46875 -8.546875 C 20.300781 -9.347656 20.71875 -10.765625 20.71875 -12.796875 L 20.71875 -55.984375 L 29.03125 -55.984375 L 29.03125 -13.359375 C 29.03125 -8.828125 27.921875 -5.347656 25.703125 -2.921875 C 23.492188 -0.492188 20.226562 0.71875 15.90625 0.71875 C 11.59375 0.71875 8.328125 -0.492188 6.109375 -2.921875 C 3.898438 -5.347656 2.796875 -8.828125 2.796875 -13.359375 L 2.796875 -55.984375 Z M 11.59375 -55.984375 "/></g></g></g><g fill="#ff66c4" fill-opacity="1"><g transform="translate(474.65394, 508.855375)"><g><path d="M 21.828125 -16.234375 L 27.828125 -55.984375 L 40.0625 -55.984375 L 40.0625 0 L 31.75 0 L 31.75 -40.140625 L 25.671875 0 L 17.359375 0 L 10.796875 -39.578125 L 10.796875 0 L 3.125 0 L 3.125 -55.984375 L 15.359375 -55.984375 Z M 21.828125 -16.234375 "/></g></g></g><g fill="#ff66c4" fill-opacity="1"><g transform="translate(529.103584, 508.855375)"><g><path d="M 21.828125 -16.234375 L 27.828125 -55.984375 L 40.0625 -55.984375 L 40.0625 0 L 31.75 0 L 31.75 -40.140625 L 25.671875 0 L 17.359375 0 L 10.796875 -39.578125 L 10.796875 0 L 3.125 0 L 3.125 -55.984375 L 15.359375 -55.984375 Z M 21.828125 -16.234375 "/></g></g></g><g fill="#ff66c4" fill-opacity="1"><g transform="translate(583.553234, 508.855375)"><g><path d="M 3.203125 -55.984375 L 12 -55.984375 L 12 0 L 3.203125 0 Z M 3.203125 -55.984375 "/></g></g></g><g fill="#ff66c4" fill-opacity="1"><g transform="translate(609.941747, 508.855375)"><g><path d="M 11.03125 -40.546875 L 11.03125 0 L 3.125 0 L 3.125 -55.984375 L 14.15625 -55.984375 L 23.1875 -22.46875 L 23.1875 -55.984375 L 31.03125 -55.984375 L 31.03125 0 L 21.984375 0 Z M 11.03125 -40.546875 "/></g></g></g><g fill="#ff66c4" fill-opacity="1"><g transform="translate(655.277508, 508.855375)"><g><path d="M 16.390625 -31.1875 L 28.703125 -31.1875 L 28.703125 -13.4375 C 28.703125 -8.90625 27.597656 -5.425781 25.390625 -3 C 23.179688 -0.570312 19.914062 0.640625 15.59375 0.640625 C 11.269531 0.640625 8.003906 -0.570312 5.796875 -3 C 3.585938 -5.425781 2.484375 -8.90625 2.484375 -13.4375 L 2.484375 -42.546875 C 2.484375 -47.078125 3.585938 -50.554688 5.796875 -52.984375 C 8.003906 -55.410156 11.269531 -56.625 15.59375 -56.625 C 19.914062 -56.625 23.179688 -55.410156 25.390625 -52.984375 C 27.597656 -50.554688 28.703125 -47.078125 28.703125 -42.546875 L 28.703125 -37.109375 L 20.390625 -37.109375 L 20.390625 -43.109375 C 20.390625 -45.128906 19.972656 -46.550781 19.140625 -47.375 C 18.316406 -48.207031 17.210938 -48.625 15.828125 -48.625 C 14.441406 -48.625 13.335938 -48.207031 12.515625 -47.375 C 11.691406 -46.550781 11.28125 -45.128906 11.28125 -43.109375 L 11.28125 -12.875 C 11.28125 -10.851562 11.691406 -9.441406 12.515625 -8.640625 C 13.335938 -7.835938 14.441406 -7.4375 15.828125 -7.4375 C 17.210938 -7.4375 18.316406 -7.835938 19.140625 -8.640625 C 19.972656 -9.441406 20.390625 -10.851562 20.390625 -12.875 L 20.390625 -23.1875 L 16.390625 -23.1875 Z M 16.390625 -31.1875 "/></g></g></g><g fill="#ff66c4" fill-opacity="1"><g transform="translate(697.655251, 508.855375)"><g><path d="M 16.46875 -55.984375 C 21.050781 -55.984375 24.367188 -54.914062 26.421875 -52.78125 C 28.484375 -50.644531 29.515625 -47.421875 29.515625 -43.109375 L 29.515625 -41.109375 C 29.515625 -38.222656 29.0625 -35.847656 28.15625 -33.984375 C 27.25 -32.117188 25.804688 -30.734375 23.828125 -29.828125 C 26.222656 -28.921875 27.914062 -27.441406 28.90625 -25.390625 C 29.894531 -23.335938 30.390625 -20.816406 30.390625 -17.828125 L 30.390625 -13.28125 C 30.390625 -8.957031 29.269531 -5.660156 27.03125 -3.390625 C 24.789062 -1.128906 21.457031 0 17.03125 0 L 3.203125 0 L 3.203125 -55.984375 Z M 12 -25.1875 L 12 -8 L 17.03125 -8 C 18.519531 -8 19.648438 -8.394531 20.421875 -9.1875 C 21.203125 -9.988281 21.59375 -11.429688 21.59375 -13.515625 L 21.59375 -18.390625 C 21.59375 -21.003906 21.148438 -22.789062 20.265625 -23.75 C 19.390625 -24.707031 17.9375 -25.1875 15.90625 -25.1875 Z M 12 -47.984375 L 12 -33.1875 L 15.4375 -33.1875 C 17.082031 -33.1875 18.375 -33.613281 19.3125 -34.46875 C 20.25 -35.320312 20.71875 -36.867188 20.71875 -39.109375 L 20.71875 -42.21875 C 20.71875 -44.25 20.351562 -45.71875 19.625 -46.625 C 18.90625 -47.53125 17.773438 -47.984375 16.234375 -47.984375 Z M 12 -47.984375 "/></g></g></g><g fill="#ff66c4" fill-opacity="1"><g transform="translate(741.312158, 508.855375)"><g><path d="M 3.203125 -55.984375 L 12 -55.984375 L 12 0 L 3.203125 0 Z M 3.203125 -55.984375 "/></g></g></g><g fill="#ff66c4" fill-opacity="1"><g transform="translate(767.700672, 508.855375)"><g><path d="M 21.59375 0 C 21.488281 -0.375 21.378906 -0.71875 21.265625 -1.03125 C 21.160156 -1.351562 21.066406 -1.753906 20.984375 -2.234375 C 20.910156 -2.710938 20.859375 -3.328125 20.828125 -4.078125 C 20.804688 -4.828125 20.796875 -5.757812 20.796875 -6.875 L 20.796875 -15.671875 C 20.796875 -18.285156 20.34375 -20.125 19.4375 -21.1875 C 18.53125 -22.257812 17.0625 -22.796875 15.03125 -22.796875 L 12 -22.796875 L 12 0 L 3.203125 0 L 3.203125 -55.984375 L 16.46875 -55.984375 C 21.050781 -55.984375 24.367188 -54.914062 26.421875 -52.78125 C 28.484375 -50.644531 29.515625 -47.421875 29.515625 -43.109375 L 29.515625 -38.703125 C 29.515625 -32.941406 27.59375 -29.15625 23.75 -27.34375 C 25.988281 -26.4375 27.519531 -24.957031 28.34375 -22.90625 C 29.175781 -20.851562 29.59375 -18.363281 29.59375 -15.4375 L 29.59375 -6.796875 C 29.59375 -5.410156 29.644531 -4.195312 29.75 -3.15625 C 29.851562 -2.113281 30.117188 -1.0625 30.546875 0 Z M 12 -47.984375 L 12 -30.78125 L 15.4375 -30.78125 C 17.082031 -30.78125 18.375 -31.207031 19.3125 -32.0625 C 20.25 -32.914062 20.71875 -34.460938 20.71875 -36.703125 L 20.71875 -42.21875 C 20.71875 -44.25 20.351562 -45.71875 19.625 -46.625 C 18.90625 -47.53125 17.773438 -47.984375 16.234375 -47.984375 Z M 12 -47.984375 "/></g></g></g><g fill="#ff66c4" fill-opacity="1"><g transform="translate(811.037784, 508.855375)"><g><path d="M 3.203125 -55.984375 L 17.109375 -55.984375 C 21.535156 -55.984375 24.828125 -54.804688 26.984375 -52.453125 C 29.148438 -50.109375 30.234375 -46.671875 30.234375 -42.140625 L 30.234375 -13.828125 C 30.234375 -9.296875 29.148438 -5.859375 26.984375 -3.515625 C 24.828125 -1.171875 21.535156 0 17.109375 0 L 3.203125 0 Z M 12 -47.984375 L 12 -8 L 16.953125 -8 C 18.335938 -8 19.429688 -8.394531 20.234375 -9.1875 C 21.035156 -9.988281 21.4375 -11.40625 21.4375 -13.4375 L 21.4375 -42.546875 C 21.4375 -44.566406 21.035156 -45.976562 20.234375 -46.78125 C 19.429688 -47.582031 18.335938 -47.984375 16.953125 -47.984375 Z M 12 -47.984375 "/></g></g></g><g fill="#5ce1e6" fill-opacity="1"><g transform="translate(457.88349, 569.194624)"><g><path d="M 21.769531 -25.769531 C 19.089844 -26.429688 17.214844 -26.6875 15.34375 -26.6875 C 7.011719 -26.6875 0.808594 -20.960938 0.808594 -12.628906 C 0.808594 -5.359375 6.535156 0.953125 14.683594 0.953125 C 18.722656 0.953125 21.476562 -0.332031 24.960938 -2.679688 C 25.734375 -2.019531 25.953125 -1.910156 26.761719 -1.433594 L 27.457031 -2.605469 C 24.816406 -4.773438 22.210938 -8.003906 20.484375 -11.234375 L 19.199219 -10.574219 C 19.492188 -9.800781 19.601562 -9.582031 20.152344 -8.664062 C 18.648438 -7.527344 17.328125 -6.9375 15.492188 -6.9375 C 11.785156 -6.9375 9.25 -9.65625 9.25 -13.140625 C 9.25 -16.921875 11.929688 -19.417969 15.566406 -19.417969 C 17.328125 -19.417969 18.574219 -19.015625 19.96875 -18.246094 C 19.898438 -16.554688 19.96875 -17.253906 19.96875 -15.933594 L 21.402344 -15.933594 C 21.621094 -20.628906 22.246094 -23.199219 23.972656 -26.722656 L 22.796875 -27.421875 C 22.355469 -26.835938 22.171875 -26.578125 21.769531 -25.769531 Z M 21.769531 -25.769531 "/></g></g></g><g fill="#5ce1e6" fill-opacity="1"><g transform="translate(496.047063, 569.194624)"><g><path d="M 7.671875 0 C 9.984375 0 11.5625 0.183594 13.621094 0.550781 L 13.730469 -0.992188 C 13.03125 -1.25 12.8125 -1.359375 11.96875 -1.503906 C 11.34375 -4.550781 11.195312 -6.679688 11.195312 -9.433594 L 18.683594 -9.433594 C 18.683594 -6.535156 18.722656 -4.480469 18.316406 -1.796875 C 17.511719 -1.613281 17.289062 -1.578125 16.445312 -1.210938 L 16.519531 0.441406 C 19.234375 0.0742188 20.445312 0 24.410156 0 C 26.6875 0 27.640625 0.0351562 29.332031 0.148438 L 29.441406 -1.359375 C 28.523438 -1.578125 28.265625 -1.578125 27.457031 -1.726562 C 26.722656 -5.101562 26.539062 -9.03125 26.539062 -16.445312 C 26.539062 -20.996094 26.652344 -22.578125 27.164062 -24.484375 C 28.082031 -24.558594 28.265625 -24.558594 29 -24.777344 L 28.925781 -26.285156 C 27.347656 -26.0625 25.328125 -25.734375 21.035156 -25.734375 C 18.574219 -25.734375 17.621094 -25.84375 16.042969 -26.175781 L 16.117188 -24.777344 C 16.921875 -24.484375 17.144531 -24.410156 17.914062 -24.339844 C 18.464844 -20.484375 18.574219 -19.382812 18.648438 -17.03125 L 10.9375 -17.03125 C 10.9375 -21.585938 11.011719 -22.648438 11.527344 -24.484375 C 12.40625 -24.59375 12.589844 -24.667969 13.324219 -24.925781 L 13.179688 -26.320312 C 12.589844 -26.175781 10.390625 -25.695312 4.773438 -25.695312 C 2.972656 -25.695312 1.578125 -25.84375 0.367188 -26.0625 L 0.402344 -24.742188 C 1.175781 -24.558594 1.394531 -24.523438 2.203125 -24.339844 C 2.898438 -19.859375 3.304688 -15.492188 3.304688 -11.195312 C 3.304688 -7.195312 2.972656 -4.332031 2.3125 -1.359375 C 1.433594 -1.25 1.210938 -1.210938 0.550781 -0.992188 L 0.550781 0.660156 C 3.304688 0.21875 5.101562 0 7.671875 0 Z M 7.671875 0 "/></g></g></g><g fill="#5ce1e6" fill-opacity="1"><g transform="translate(537.292104, 569.194624)"><g><path d="M 2.3125 -24.523438 C 2.753906 -22.246094 3.304688 -18.613281 3.304688 -9.984375 C 3.304688 -6.609375 3.121094 -3.964844 2.753906 -1.503906 C 2.019531 -1.320312 1.796875 -1.25 0.917969 -0.953125 L 1.175781 0.441406 C 3.414062 0.148438 4.699219 0 6.863281 0 C 9.105469 0 11.050781 0.183594 13.546875 0.550781 L 13.621094 -0.84375 C 12.886719 -1.175781 12.703125 -1.25 11.855469 -1.433594 C 11.160156 -6.863281 10.867188 -10.425781 10.867188 -13.546875 C 10.867188 -14.976562 10.867188 -15.527344 11.527344 -24.523438 C 12.371094 -24.667969 12.554688 -24.742188 13.324219 -24.960938 L 13.289062 -26.429688 C 11.34375 -25.953125 9.542969 -25.734375 6.863281 -25.734375 C 4.882812 -25.734375 3.15625 -25.878906 0.769531 -26.136719 L 0.769531 -24.707031 C 1.433594 -24.59375 1.613281 -24.59375 2.3125 -24.523438 Z M 2.3125 -24.523438 "/></g></g></g><g fill="#5ce1e6" fill-opacity="1"><g transform="translate(562.873041, 569.194624)"><g><path d="M 2.421875 -24.339844 C 3.121094 -21.21875 3.304688 -18.0625 3.304688 -12.886719 C 3.304688 -8.847656 3.265625 -5.324219 2.789062 -1.175781 C 1.578125 -1.027344 1.761719 -0.992188 0.769531 -0.769531 L 0.84375 0.953125 C 5.433594 0.257812 8.222656 0 11.234375 0 C 13.621094 0 15.675781 0.148438 18.132812 0.441406 C 18.5 1.175781 18.574219 1.359375 18.832031 1.945312 L 20.445312 1.726562 C 19.898438 -0.550781 19.675781 -2.3125 19.675781 -4.589844 C 19.675781 -6.902344 19.898438 -8.699219 20.445312 -11.121094 L 18.832031 -11.234375 C 18.613281 -10.242188 18.5 -10.023438 18.316406 -8.992188 C 16.371094 -8.039062 15.125 -7.710938 11.34375 -7.304688 C 11.34375 -20.410156 11.34375 -21.363281 11.96875 -24.484375 C 12.886719 -24.667969 13.140625 -24.667969 14.058594 -24.925781 L 13.914062 -26.46875 C 11.527344 -25.953125 9.65625 -25.734375 7.121094 -25.734375 C 5.140625 -25.734375 3.339844 -25.878906 0.769531 -26.136719 L 0.660156 -24.558594 C 1.503906 -24.410156 1.320312 -24.375 2.421875 -24.339844 Z M 2.421875 -24.339844 "/></g></g></g><g fill="#5ce1e6" fill-opacity="1"><g transform="translate(595.68075, 569.194624)"><g><path d="M 7.085938 0 C 8.589844 0 13.621094 0.402344 14.683594 0.402344 C 21.84375 0.402344 26.945312 -6.019531 26.945312 -13.546875 C 26.945312 -21.546875 21.988281 -26.136719 14.535156 -26.136719 C 11.855469 -26.136719 8.699219 -25.734375 5.652344 -25.734375 C 3.890625 -25.734375 2.496094 -25.878906 0.585938 -26.101562 L 0.585938 -24.707031 C 1.433594 -24.558594 1.6875 -24.523438 2.386719 -24.410156 C 3.011719 -19.601562 3.304688 -15.894531 3.304688 -11.929688 C 3.304688 -8.257812 3.082031 -5.027344 2.605469 -1.210938 C 1.613281 -1.101562 1.394531 -1.101562 0.550781 -0.917969 L 0.625 0.441406 C 6.09375 0 6.09375 0 7.085938 0 Z M 18.390625 -13.507812 C 18.390625 -10.351562 16.226562 -7.890625 12.738281 -7.890625 C 12.222656 -7.890625 11.855469 -7.929688 11.121094 -8.1875 C 11.050781 -9.066406 10.867188 -11.417969 10.867188 -14.390625 C 10.867188 -16.261719 10.867188 -16.8125 11.160156 -18.5 C 11.96875 -18.683594 12.445312 -18.796875 13.214844 -18.796875 C 15.96875 -18.796875 18.390625 -17.070312 18.390625 -13.507812 Z M 18.390625 -13.507812 "/></g></g></g><g fill="#5ce1e6" fill-opacity="1"><g transform="translate(634.834776, 569.194624)"><g><path d="M 21.769531 -25.769531 C 19.089844 -26.429688 17.214844 -26.6875 15.34375 -26.6875 C 7.011719 -26.6875 0.808594 -20.960938 0.808594 -12.628906 C 0.808594 -5.359375 6.535156 0.953125 14.683594 0.953125 C 18.722656 0.953125 21.476562 -0.332031 24.960938 -2.679688 C 25.734375 -2.019531 25.953125 -1.910156 26.761719 -1.433594 L 27.457031 -2.605469 C 24.816406 -4.773438 22.210938 -8.003906 20.484375 -11.234375 L 19.199219 -10.574219 C 19.492188 -9.800781 19.601562 -9.582031 20.152344 -8.664062 C 18.648438 -7.527344 17.328125 -6.9375 15.492188 -6.9375 C 11.785156 -6.9375 9.25 -9.65625 9.25 -13.140625 C 9.25 -16.921875 11.929688 -19.417969 15.566406 -19.417969 C 17.328125 -19.417969 18.574219 -19.015625 19.96875 -18.246094 C 19.898438 -16.554688 19.96875 -17.253906 19.96875 -15.933594 L 21.402344 -15.933594 C 21.621094 -20.628906 22.246094 -23.199219 23.972656 -26.722656 L 22.796875 -27.421875 C 22.355469 -26.835938 22.171875 -26.578125 21.769531 -25.769531 Z M 21.769531 -25.769531 "/></g></g></g><g fill="#5ce1e6" fill-opacity="1"><g transform="translate(672.998345, 569.194624)"><g><path d="M 9.433594 3.15625 L 10.351562 2.3125 C 9.839844 1.796875 9.691406 1.726562 9.25 1.359375 C 9.765625 -0.625 9.949219 -1.210938 10.351562 -2.3125 L 19.675781 -2.3125 C 20.191406 -1.175781 20.375 -0.585938 20.886719 1.503906 C 20.484375 1.910156 20.410156 1.980469 20.007812 2.386719 L 20.8125 3.378906 C 24.410156 0.332031 27.640625 -1.359375 30.6875 -1.945312 L 30.503906 -3.195312 C 29.882812 -3.15625 29.699219 -3.121094 29.039062 -2.898438 C 22.027344 -12.445312 17.253906 -20.484375 14.683594 -26.503906 L 13.730469 -26.503906 C 12.921875 -24.265625 6.9375 -11.234375 5.910156 -9.066406 C 4 -5.175781 3.011719 -3.378906 1.726562 -1.726562 C 1.027344 -1.835938 0.84375 -1.835938 0.21875 -1.910156 L 0.0351562 -0.769531 C 4.367188 0 7.269531 1.25 9.433594 3.15625 Z M 17.070312 -8.1875 L 12.222656 -8.1875 L 14.574219 -13.730469 Z M 17.070312 -8.1875 "/></g></g></g><g fill="#5ce1e6" fill-opacity="1"><g transform="translate(714.50015, 569.194624)"><g><path d="M 2.3125 -24.375 C 2.898438 -21.84375 3.304688 -17.878906 3.304688 -11.269531 C 3.304688 -7.453125 3.011719 -4.480469 2.496094 -1.25 C 1.578125 -1.175781 1.394531 -1.136719 0.625 -0.953125 L 0.808594 0.585938 C 3.15625 0.183594 5.027344 0 7.414062 0 C 9.066406 0 10.828125 0.148438 13.472656 0.367188 L 13.472656 -1.101562 C 12.628906 -1.210938 12.554688 -1.25 11.601562 -1.394531 C 10.976562 -3.523438 10.792969 -5.507812 10.792969 -9.433594 C 13.363281 -7.34375 15.34375 -4.882812 18.0625 0.257812 C 17.546875 0.808594 17.472656 0.992188 17.214844 1.578125 L 18.5 2.53125 C 20.558594 -0.515625 23.75 -3.523438 26.761719 -5.359375 L 25.992188 -6.679688 C 25.402344 -6.351562 25.292969 -6.3125 24.777344 -6.019531 C 23.015625 -7.085938 21.988281 -7.929688 20.152344 -10.058594 C 23.164062 -12.738281 24.484375 -14.902344 24.484375 -17.839844 C 24.484375 -22.945312 19.96875 -26.46875 13.363281 -26.46875 C 9.800781 -26.46875 8.113281 -25.734375 4.882812 -25.734375 C 3.5625 -25.734375 2.347656 -25.84375 0.332031 -26.136719 L 0.21875 -24.667969 C 1.175781 -24.523438 1.175781 -24.558594 2.3125 -24.375 Z M 10.644531 -12.921875 C 10.792969 -16.261719 10.867188 -15.75 10.976562 -19.089844 C 13.875 -19.015625 15.382812 -18.5 15.382812 -16.445312 C 15.382812 -14.097656 13.398438 -12.996094 10.644531 -12.921875 Z M 10.644531 -12.921875 "/></g></g></g><g fill="#5ce1e6" fill-opacity="1"><g transform="translate(751.196354, 569.194624)"><g><path d="M 12.222656 0 C 14.28125 0 15.675781 0.0351562 17.695312 0.183594 C 17.878906 0.917969 17.914062 1.101562 18.28125 1.835938 L 19.898438 1.6875 C 19.308594 -0.257812 19.015625 -1.980469 19.015625 -4.917969 C 19.015625 -7.414062 19.199219 -8.589844 19.601562 -10.277344 L 18.429688 -10.71875 C 17.839844 -9.289062 17.695312 -8.847656 17.328125 -7.230469 L 10.390625 -6.9375 L 10.535156 -10.277344 L 14.5 -10.242188 C 14.71875 -9.398438 14.792969 -9.175781 15.125 -8.441406 L 16.371094 -8.699219 C 15.859375 -10.9375 15.566406 -12.371094 15.566406 -13.949219 C 15.566406 -14.976562 15.75 -15.933594 16.078125 -17.253906 L 14.867188 -17.4375 C 14.648438 -16.960938 14.574219 -16.886719 14.390625 -16.300781 L 10.351562 -16.371094 L 10.460938 -18.90625 L 18.132812 -18.867188 C 18.390625 -18.0625 18.429688 -17.878906 18.683594 -17.214844 L 20.078125 -17.511719 C 19.492188 -19.457031 19.199219 -21.144531 19.199219 -23.933594 C 19.199219 -25.476562 19.273438 -26.355469 19.457031 -27.714844 L 18.207031 -27.679688 C 17.988281 -27.054688 17.914062 -26.871094 17.804688 -26.101562 C 15.308594 -25.84375 13.398438 -25.734375 7.414062 -25.734375 C 4 -25.734375 2.164062 -25.878906 0.660156 -26.0625 L 0.625 -24.777344 C 1.359375 -24.59375 1.542969 -24.59375 2.203125 -24.523438 C 2.9375 -20.558594 3.304688 -17.398438 3.304688 -14.316406 C 3.304688 -11.601562 3.15625 -8.039062 2.714844 -0.992188 C 1.835938 -0.917969 1.613281 -0.84375 0.769531 -0.734375 L 0.660156 0.585938 C 5.324219 0.183594 8.664062 0 12.222656 0 Z M 12.222656 0 "/></g></g></g></svg>