<svg xmlns="http://www.w3.org/2000/svg" xmlns:xlink="http://www.w3.org/1999/xlink" width="500" zoomAndPan="magnify" viewBox="0 0 375 374.999991" height="500" preserveAspectRatio="xMidYMid meet" version="1.0"><defs><g/><clipPath id="3d0b2fde1c"><path d="M 143.214844 87.511719 L 254.964844 87.511719 L 254.964844 196.261719 L 143.214844 196.261719 Z M 143.214844 87.511719 " clip-rule="nonzero"/></clipPath><clipPath id="f7def3bd24"><path d="M 148.289062 117.257812 C 150.90625 144.035156 164.085938 164.96875 190.796875 172.261719 C 175.574219 164.238281 167.859375 151.386719 167.632812 133.746094 C 169.492188 134.167969 170.210938 134.320312 172.070312 134.785156 C 172.210938 153.03125 187.207031 166.90625 203.089844 173.105469 C 193.753906 176.789062 181.503906 174.667969 172.828125 169.816406 C 154.695312 159.738281 140.839844 135.839844 143.90625 103.773438 C 150.765625 114.910156 158.691406 120.65625 168.238281 123.808594 C 169.296875 115.484375 172.011719 105.417969 175.84375 95.324219 C 176.800781 92.558594 177.871094 89.929688 179.09375 87.496094 C 184.023438 106.320312 192.164062 119.082031 203.496094 125.746094 C 193.597656 125.324219 183.53125 113.894531 178.898438 103.101562 C 176.320312 109.511719 173.984375 117.777344 173.40625 124.929688 L 176.363281 125.773438 C 207.160156 134.292969 219.914062 150.953125 215.140625 169.789062 C 225.210938 165.402344 225.714844 148.535156 228.320312 138.046875 C 231.011719 127.277344 234.585938 118.4375 242.9375 115.148438 C 233.40625 105.742188 214.4375 107.964844 206.453125 129.765625 C 210.296875 106.8125 230.390625 99.9375 243.9375 110.15625 C 249.105469 113.503906 252.132812 117.410156 254.707031 117.664062 C 236.179688 117.046875 234.011719 132.199219 230.828125 150.558594 C 229.054688 160.792969 226.140625 174.851562 213.355469 175.398438 C 204.273438 198.058594 178.632812 200.914062 160.453125 190.441406 C 178.785156 195.347656 201.921875 194.125 208.410156 171.617188 C 210.792969 163.335938 210.3125 154.804688 204.566406 147.492188 C 199.003906 140.421875 188.769531 135.65625 180.449219 133.113281 C 167.226562 129.964844 148.5 121.894531 148.289062 117.257812 Z M 148.289062 117.257812 " clip-rule="evenodd"/></clipPath><linearGradient x1="37.62853" gradientTransform="matrix(1.408066, 0, 0, 1.405765, 143.471559, 87.510098)" y1="-2.843895" x2="31.963391" gradientUnits="userSpaceOnUse" y2="79.569681" id="72774552b1"><stop stop-opacity="1" stop-color="rgb(49.398804%, 85.099792%, 34.098816%)" offset="0"/><stop stop-opacity="1" stop-color="rgb(49.398804%, 85.099792%, 34.098816%)" offset="0.0657344"/><stop stop-opacity="1" stop-color="rgb(49.398804%, 85.099792%, 34.098816%)" offset="0.25"/><stop stop-opacity="1" stop-color="rgb(49.398804%, 85.099792%, 34.098816%)" offset="0.28125"/><stop stop-opacity="1" stop-color="rgb(49.398804%, 85.099792%, 34.098816%)" offset="0.296875"/><stop stop-opacity="1" stop-color="rgb(49.328613%, 85.115051%, 34.393311%)" offset="0.300781"/><stop stop-opacity="1" stop-color="rgb(49.259949%, 85.131836%, 34.687805%)" offset="0.304688"/><stop stop-opacity="1" stop-color="rgb(49.177551%, 85.150146%, 35.03418%)" offset="0.308594"/><stop stop-opacity="1" stop-color="rgb(49.095154%, 85.169983%, 35.38208%)" offset="0.3125"/><stop stop-opacity="1" stop-color="rgb(49.012756%, 85.188293%, 35.728455%)" offset="0.316406"/><stop stop-opacity="1" stop-color="rgb(48.930359%, 85.20813%, 36.074829%)" offset="0.320312"/><stop stop-opacity="1" stop-color="rgb(48.847961%, 85.22644%, 36.421204%)" offset="0.324219"/><stop stop-opacity="1" stop-color="rgb(48.76709%, 85.246277%, 36.769104%)" offset="0.328125"/><stop stop-opacity="1" stop-color="rgb(48.684692%, 85.264587%, 37.115479%)" offset="0.332031"/><stop stop-opacity="1" stop-color="rgb(48.602295%, 85.284424%, 37.461853%)" offset="0.335938"/><stop stop-opacity="1" stop-color="rgb(48.519897%, 85.30426%, 37.808228%)" offset="0.339844"/><stop stop-opacity="1" stop-color="rgb(48.4375%, 85.324097%, 38.156128%)" offset="0.34375"/><stop stop-opacity="1" stop-color="rgb(48.355103%, 85.342407%, 38.502502%)" offset="0.347656"/><stop stop-opacity="1" stop-color="rgb(48.272705%, 85.362244%, 38.848877%)" offset="0.351562"/><stop stop-opacity="1" stop-color="rgb(48.190308%, 85.380554%, 39.195251%)" offset="0.355469"/><stop stop-opacity="1" stop-color="rgb(48.109436%, 85.400391%, 39.543152%)" offset="0.359375"/><stop stop-opacity="1" stop-color="rgb(48.027039%, 85.418701%, 39.889526%)" offset="0.363281"/><stop stop-opacity="1" stop-color="rgb(47.944641%, 85.438538%, 40.235901%)" offset="0.367188"/><stop stop-opacity="1" stop-color="rgb(47.862244%, 85.456848%, 40.582275%)" offset="0.371094"/><stop stop-opacity="1" stop-color="rgb(47.779846%, 85.476685%, 40.930176%)" offset="0.375"/><stop stop-opacity="1" stop-color="rgb(47.697449%, 85.494995%, 41.27655%)" offset="0.378906"/><stop stop-opacity="1" stop-color="rgb(47.615051%, 85.514832%, 41.622925%)" offset="0.382813"/><stop stop-opacity="1" stop-color="rgb(47.532654%, 85.533142%, 41.969299%)" offset="0.386719"/><stop stop-opacity="1" stop-color="rgb(47.450256%, 85.552979%, 42.3172%)" offset="0.390625"/><stop stop-opacity="1" stop-color="rgb(47.367859%, 85.571289%, 42.663574%)" offset="0.394531"/><stop stop-opacity="1" stop-color="rgb(47.286987%, 85.591125%, 43.009949%)" offset="0.398438"/><stop stop-opacity="1" stop-color="rgb(47.20459%, 85.609436%, 43.356323%)" offset="0.402344"/><stop stop-opacity="1" stop-color="rgb(47.122192%, 85.629272%, 43.704224%)" offset="0.40625"/><stop stop-opacity="1" stop-color="rgb(47.039795%, 85.649109%, 44.050598%)" offset="0.410156"/><stop stop-opacity="1" stop-color="rgb(46.957397%, 85.668945%, 44.396973%)" offset="0.414063"/><stop stop-opacity="1" stop-color="rgb(46.875%, 85.687256%, 44.743347%)" offset="0.417969"/><stop stop-opacity="1" stop-color="rgb(46.792603%, 85.707092%, 45.091248%)" offset="0.421875"/><stop stop-opacity="1" stop-color="rgb(46.710205%, 85.725403%, 45.437622%)" offset="0.425781"/><stop stop-opacity="1" stop-color="rgb(46.629333%, 85.745239%, 45.785522%)" offset="0.429688"/><stop stop-opacity="1" stop-color="rgb(46.546936%, 85.76355%, 46.131897%)" offset="0.433594"/><stop stop-opacity="1" stop-color="rgb(46.464539%, 85.783386%, 46.478271%)" offset="0.4375"/><stop stop-opacity="1" stop-color="rgb(46.382141%, 85.801697%, 46.824646%)" offset="0.441406"/><stop stop-opacity="1" stop-color="rgb(46.299744%, 85.821533%, 47.172546%)" offset="0.445313"/><stop stop-opacity="1" stop-color="rgb(46.217346%, 85.839844%, 47.518921%)" offset="0.449219"/><stop stop-opacity="1" stop-color="rgb(46.134949%, 85.85968%, 47.865295%)" offset="0.453125"/><stop stop-opacity="1" stop-color="rgb(46.052551%, 85.877991%, 48.21167%)" offset="0.457031"/><stop stop-opacity="1" stop-color="rgb(45.97168%, 85.897827%, 48.55957%)" offset="0.460938"/><stop stop-opacity="1" stop-color="rgb(45.889282%, 85.916138%, 48.905945%)" offset="0.464844"/><stop stop-opacity="1" stop-color="rgb(45.806885%, 85.935974%, 49.252319%)" offset="0.46875"/><stop stop-opacity="1" stop-color="rgb(45.724487%, 85.955811%, 49.598694%)" offset="0.472656"/><stop stop-opacity="1" stop-color="rgb(45.64209%, 85.975647%, 49.946594%)" offset="0.476563"/><stop stop-opacity="1" stop-color="rgb(45.559692%, 85.993958%, 50.292969%)" offset="0.480469"/><stop stop-opacity="1" stop-color="rgb(45.477295%, 86.013794%, 50.639343%)" offset="0.484375"/><stop stop-opacity="1" stop-color="rgb(45.394897%, 86.032104%, 50.985718%)" offset="0.488281"/><stop stop-opacity="1" stop-color="rgb(45.314026%, 86.051941%, 51.333618%)" offset="0.492188"/><stop stop-opacity="1" stop-color="rgb(45.231628%, 86.070251%, 51.679993%)" offset="0.496094"/><stop stop-opacity="1" stop-color="rgb(45.149231%, 86.090088%, 52.026367%)" offset="0.5"/><stop stop-opacity="1" stop-color="rgb(45.066833%, 86.108398%, 52.372742%)" offset="0.503906"/><stop stop-opacity="1" stop-color="rgb(44.984436%, 86.128235%, 52.720642%)" offset="0.507813"/><stop stop-opacity="1" stop-color="rgb(44.902039%, 86.146545%, 53.067017%)" offset="0.511719"/><stop stop-opacity="1" stop-color="rgb(44.819641%, 86.166382%, 53.413391%)" offset="0.515625"/><stop stop-opacity="1" stop-color="rgb(44.737244%, 86.184692%, 53.759766%)" offset="0.519531"/><stop stop-opacity="1" stop-color="rgb(44.656372%, 86.204529%, 54.107666%)" offset="0.523438"/><stop stop-opacity="1" stop-color="rgb(44.573975%, 86.222839%, 54.454041%)" offset="0.527344"/><stop stop-opacity="1" stop-color="rgb(44.491577%, 86.242676%, 54.800415%)" offset="0.53125"/><stop stop-opacity="1" stop-color="rgb(44.40918%, 86.260986%, 55.14679%)" offset="0.535156"/><stop stop-opacity="1" stop-color="rgb(44.326782%, 86.280823%, 55.49469%)" offset="0.539063"/><stop stop-opacity="1" stop-color="rgb(44.244385%, 86.300659%, 55.841064%)" offset="0.542969"/><stop stop-opacity="1" stop-color="rgb(44.161987%, 86.320496%, 56.187439%)" offset="0.546875"/><stop stop-opacity="1" stop-color="rgb(44.07959%, 86.338806%, 56.533813%)" offset="0.550781"/><stop stop-opacity="1" stop-color="rgb(43.998718%, 86.358643%, 56.881714%)" offset="0.554688"/><stop stop-opacity="1" stop-color="rgb(43.916321%, 86.376953%, 57.228088%)" offset="0.558594"/><stop stop-opacity="1" stop-color="rgb(43.833923%, 86.39679%, 57.574463%)" offset="0.5625"/><stop stop-opacity="1" stop-color="rgb(43.751526%, 86.4151%, 57.920837%)" offset="0.566406"/><stop stop-opacity="1" stop-color="rgb(43.669128%, 86.434937%, 58.268738%)" offset="0.570313"/><stop stop-opacity="1" stop-color="rgb(43.586731%, 86.453247%, 58.615112%)" offset="0.574219"/><stop stop-opacity="1" stop-color="rgb(43.504333%, 86.473083%, 58.963013%)" offset="0.578125"/><stop stop-opacity="1" stop-color="rgb(43.421936%, 86.491394%, 59.309387%)" offset="0.582031"/><stop stop-opacity="1" stop-color="rgb(43.341064%, 86.51123%, 59.655762%)" offset="0.585938"/><stop stop-opacity="1" stop-color="rgb(43.258667%, 86.529541%, 60.002136%)" offset="0.589844"/><stop stop-opacity="1" stop-color="rgb(43.17627%, 86.549377%, 60.350037%)" offset="0.59375"/><stop stop-opacity="1" stop-color="rgb(43.093872%, 86.567688%, 60.696411%)" offset="0.597656"/><stop stop-opacity="1" stop-color="rgb(43.011475%, 86.587524%, 61.042786%)" offset="0.601563"/><stop stop-opacity="1" stop-color="rgb(42.929077%, 86.605835%, 61.38916%)" offset="0.605469"/><stop stop-opacity="1" stop-color="rgb(42.84668%, 86.625671%, 61.737061%)" offset="0.609375"/><stop stop-opacity="1" stop-color="rgb(42.764282%, 86.645508%, 62.083435%)" offset="0.613281"/><stop stop-opacity="1" stop-color="rgb(42.683411%, 86.665344%, 62.42981%)" offset="0.617188"/><stop stop-opacity="1" stop-color="rgb(42.601013%, 86.683655%, 62.776184%)" offset="0.621094"/><stop stop-opacity="1" stop-color="rgb(42.518616%, 86.703491%, 63.124084%)" offset="0.625"/><stop stop-opacity="1" stop-color="rgb(42.436218%, 86.721802%, 63.470459%)" offset="0.628906"/><stop stop-opacity="1" stop-color="rgb(42.353821%, 86.741638%, 63.816833%)" offset="0.632813"/><stop stop-opacity="1" stop-color="rgb(42.271423%, 86.759949%, 64.163208%)" offset="0.636719"/><stop stop-opacity="1" stop-color="rgb(42.189026%, 86.779785%, 64.511108%)" offset="0.640625"/><stop stop-opacity="1" stop-color="rgb(42.106628%, 86.798096%, 64.857483%)" offset="0.644531"/><stop stop-opacity="1" stop-color="rgb(42.024231%, 86.817932%, 65.203857%)" offset="0.648438"/><stop stop-opacity="1" stop-color="rgb(41.941833%, 86.836243%, 65.550232%)" offset="0.652344"/><stop stop-opacity="1" stop-color="rgb(41.860962%, 86.856079%, 65.898132%)" offset="0.65625"/><stop stop-opacity="1" stop-color="rgb(41.778564%, 86.87439%, 66.244507%)" offset="0.660156"/><stop stop-opacity="1" stop-color="rgb(41.696167%, 86.894226%, 66.590881%)" offset="0.664063"/><stop stop-opacity="1" stop-color="rgb(41.61377%, 86.912537%, 66.937256%)" offset="0.667969"/><stop stop-opacity="1" stop-color="rgb(41.531372%, 86.932373%, 67.285156%)" offset="0.671875"/><stop stop-opacity="1" stop-color="rgb(41.448975%, 86.952209%, 67.631531%)" offset="0.675781"/><stop stop-opacity="1" stop-color="rgb(41.366577%, 86.972046%, 67.977905%)" offset="0.679688"/><stop stop-opacity="1" stop-color="rgb(41.28418%, 86.990356%, 68.32428%)" offset="0.683594"/><stop stop-opacity="1" stop-color="rgb(41.203308%, 87.010193%, 68.67218%)" offset="0.6875"/><stop stop-opacity="1" stop-color="rgb(41.120911%, 87.028503%, 69.018555%)" offset="0.691406"/><stop stop-opacity="1" stop-color="rgb(41.038513%, 87.04834%, 69.364929%)" offset="0.695313"/><stop stop-opacity="1" stop-color="rgb(40.956116%, 87.06665%, 69.711304%)" offset="0.699219"/><stop stop-opacity="1" stop-color="rgb(40.873718%, 87.086487%, 70.059204%)" offset="0.703125"/><stop stop-opacity="1" stop-color="rgb(40.791321%, 87.104797%, 70.405579%)" offset="0.707031"/><stop stop-opacity="1" stop-color="rgb(40.708923%, 87.124634%, 70.753479%)" offset="0.710938"/><stop stop-opacity="1" stop-color="rgb(40.626526%, 87.142944%, 71.099854%)" offset="0.714844"/><stop stop-opacity="1" stop-color="rgb(40.545654%, 87.162781%, 71.446228%)" offset="0.71875"/><stop stop-opacity="1" stop-color="rgb(40.463257%, 87.181091%, 71.792603%)" offset="0.722656"/><stop stop-opacity="1" stop-color="rgb(40.380859%, 87.200928%, 72.140503%)" offset="0.726563"/><stop stop-opacity="1" stop-color="rgb(40.298462%, 87.219238%, 72.486877%)" offset="0.730469"/><stop stop-opacity="1" stop-color="rgb(40.216064%, 87.239075%, 72.833252%)" offset="0.734375"/><stop stop-opacity="1" stop-color="rgb(40.133667%, 87.257385%, 73.179626%)" offset="0.738281"/><stop stop-opacity="1" stop-color="rgb(40.05127%, 87.277222%, 73.527527%)" offset="0.742188"/><stop stop-opacity="1" stop-color="rgb(39.968872%, 87.297058%, 73.873901%)" offset="0.746094"/><stop stop-opacity="1" stop-color="rgb(39.888%, 87.316895%, 74.220276%)" offset="0.75"/><stop stop-opacity="1" stop-color="rgb(39.805603%, 87.335205%, 74.56665%)" offset="0.753906"/><stop stop-opacity="1" stop-color="rgb(39.723206%, 87.355042%, 74.914551%)" offset="0.757813"/><stop stop-opacity="1" stop-color="rgb(39.640808%, 87.373352%, 75.260925%)" offset="0.761719"/><stop stop-opacity="1" stop-color="rgb(39.558411%, 87.393188%, 75.6073%)" offset="0.765625"/><stop stop-opacity="1" stop-color="rgb(39.476013%, 87.411499%, 75.953674%)" offset="0.769531"/><stop stop-opacity="1" stop-color="rgb(39.393616%, 87.431335%, 76.301575%)" offset="0.773438"/><stop stop-opacity="1" stop-color="rgb(39.311218%, 87.449646%, 76.647949%)" offset="0.777344"/><stop stop-opacity="1" stop-color="rgb(39.230347%, 87.469482%, 76.994324%)" offset="0.78125"/><stop stop-opacity="1" stop-color="rgb(39.147949%, 87.487793%, 77.340698%)" offset="0.785156"/><stop stop-opacity="1" stop-color="rgb(39.065552%, 87.507629%, 77.688599%)" offset="0.789063"/><stop stop-opacity="1" stop-color="rgb(38.983154%, 87.52594%, 78.034973%)" offset="0.792969"/><stop stop-opacity="1" stop-color="rgb(38.900757%, 87.545776%, 78.381348%)" offset="0.796875"/><stop stop-opacity="1" stop-color="rgb(38.818359%, 87.564087%, 78.727722%)" offset="0.800781"/><stop stop-opacity="1" stop-color="rgb(38.735962%, 87.583923%, 79.075623%)" offset="0.804688"/><stop stop-opacity="1" stop-color="rgb(38.653564%, 87.60376%, 79.421997%)" offset="0.808594"/><stop stop-opacity="1" stop-color="rgb(38.572693%, 87.623596%, 79.768372%)" offset="0.8125"/><stop stop-opacity="1" stop-color="rgb(38.490295%, 87.641907%, 80.114746%)" offset="0.816406"/><stop stop-opacity="1" stop-color="rgb(38.407898%, 87.661743%, 80.462646%)" offset="0.820313"/><stop stop-opacity="1" stop-color="rgb(38.3255%, 87.680054%, 80.809021%)" offset="0.824219"/><stop stop-opacity="1" stop-color="rgb(38.243103%, 87.69989%, 81.155396%)" offset="0.828125"/><stop stop-opacity="1" stop-color="rgb(38.160706%, 87.718201%, 81.50177%)" offset="0.832031"/><stop stop-opacity="1" stop-color="rgb(38.078308%, 87.738037%, 81.84967%)" offset="0.835938"/><stop stop-opacity="1" stop-color="rgb(37.995911%, 87.756348%, 82.196045%)" offset="0.839844"/><stop stop-opacity="1" stop-color="rgb(37.915039%, 87.776184%, 82.542419%)" offset="0.84375"/><stop stop-opacity="1" stop-color="rgb(37.832642%, 87.794495%, 82.888794%)" offset="0.847656"/><stop stop-opacity="1" stop-color="rgb(37.750244%, 87.814331%, 83.236694%)" offset="0.851563"/><stop stop-opacity="1" stop-color="rgb(37.667847%, 87.832642%, 83.583069%)" offset="0.855469"/><stop stop-opacity="1" stop-color="rgb(37.585449%, 87.852478%, 83.930969%)" offset="0.859375"/><stop stop-opacity="1" stop-color="rgb(37.503052%, 87.870789%, 84.277344%)" offset="0.863281"/><stop stop-opacity="1" stop-color="rgb(37.420654%, 87.890625%, 84.623718%)" offset="0.867188"/><stop stop-opacity="1" stop-color="rgb(37.338257%, 87.908936%, 84.970093%)" offset="0.871094"/><stop stop-opacity="1" stop-color="rgb(37.255859%, 87.928772%, 85.317993%)" offset="0.875"/><stop stop-opacity="1" stop-color="rgb(37.173462%, 87.948608%, 85.664368%)" offset="0.878906"/><stop stop-opacity="1" stop-color="rgb(37.09259%, 87.968445%, 86.010742%)" offset="0.882813"/><stop stop-opacity="1" stop-color="rgb(37.010193%, 87.986755%, 86.357117%)" offset="0.886719"/><stop stop-opacity="1" stop-color="rgb(36.927795%, 88.006592%, 86.705017%)" offset="0.890625"/><stop stop-opacity="1" stop-color="rgb(36.845398%, 88.024902%, 87.051392%)" offset="0.894531"/><stop stop-opacity="1" stop-color="rgb(36.763%, 88.044739%, 87.397766%)" offset="0.898438"/><stop stop-opacity="1" stop-color="rgb(36.680603%, 88.063049%, 87.744141%)" offset="0.902344"/><stop stop-opacity="1" stop-color="rgb(36.598206%, 88.082886%, 88.092041%)" offset="0.90625"/><stop stop-opacity="1" stop-color="rgb(36.515808%, 88.101196%, 88.438416%)" offset="0.910156"/><stop stop-opacity="1" stop-color="rgb(36.434937%, 88.121033%, 88.78479%)" offset="0.914063"/><stop stop-opacity="1" stop-color="rgb(36.352539%, 88.139343%, 89.131165%)" offset="0.917969"/><stop stop-opacity="1" stop-color="rgb(36.270142%, 88.15918%, 89.479065%)" offset="0.921875"/><stop stop-opacity="1" stop-color="rgb(36.187744%, 88.17749%, 89.825439%)" offset="0.925781"/><stop stop-opacity="1" stop-color="rgb(36.105347%, 88.197327%, 90.171814%)" offset="0.929688"/><stop stop-opacity="1" stop-color="rgb(36.102295%, 88.197327%, 90.185547%)" offset="0.934266"/><stop stop-opacity="1" stop-color="rgb(36.099243%, 88.198853%, 90.19928%)" offset="0.9375"/><stop stop-opacity="1" stop-color="rgb(36.099243%, 88.198853%, 90.19928%)" offset="1"/></linearGradient></defs><g clip-path="url(#3d0b2fde1c)"><g clip-path="url(#f7def3bd24)"><path fill="url(#72774552b1)" d="M 143.214844 87.511719 L 143.214844 196.261719 L 254.707031 196.261719 L 254.707031 87.511719 Z M 143.214844 87.511719 " fill-rule="nonzero"/></g></g><g fill="#ff66c4" fill-opacity="1"><g transform="translate(112.194899, 226.270855)"><g><path d="M 4.1875 0 L 1.109375 0 L 1.109375 -19.546875 L 4.1875 -19.546875 L 4.1875 -11.171875 L 7.671875 -11.171875 L 7.671875 -19.546875 L 10.8125 -19.546875 L 10.8125 0 L 7.671875 0 L 7.671875 -8.375 L 4.1875 -8.375 Z M 4.1875 0 "/></g></g></g><g fill="#ff66c4" fill-opacity="1"><g transform="translate(128.024364, 226.270855)"><g><path d="M 4.046875 -19.546875 L 4.046875 -4.46875 C 4.046875 -3.757812 4.191406 -3.265625 4.484375 -2.984375 C 4.773438 -2.703125 5.160156 -2.5625 5.640625 -2.5625 C 6.117188 -2.5625 6.503906 -2.703125 6.796875 -2.984375 C 7.085938 -3.265625 7.234375 -3.757812 7.234375 -4.46875 L 7.234375 -19.546875 L 10.140625 -19.546875 L 10.140625 -4.65625 C 10.140625 -3.082031 9.75 -1.867188 8.96875 -1.015625 C 8.195312 -0.171875 7.0625 0.25 5.5625 0.25 C 4.050781 0.25 2.910156 -0.171875 2.140625 -1.015625 C 1.367188 -1.867188 0.984375 -3.082031 0.984375 -4.65625 L 0.984375 -19.546875 Z M 4.046875 -19.546875 "/></g></g></g><g fill="#ff66c4" fill-opacity="1"><g transform="translate(143.04432, 226.270855)"><g><path d="M 7.625 -5.671875 L 9.71875 -19.546875 L 13.984375 -19.546875 L 13.984375 0 L 11.078125 0 L 11.078125 -14.015625 L 8.96875 0 L 6.0625 0 L 3.765625 -13.828125 L 3.765625 0 L 1.09375 0 L 1.09375 -19.546875 L 5.359375 -19.546875 Z M 7.625 -5.671875 "/></g></g></g><g fill="#ff66c4" fill-opacity="1"><g transform="translate(162.055997, 226.270855)"><g><path d="M 7.625 -5.671875 L 9.71875 -19.546875 L 13.984375 -19.546875 L 13.984375 0 L 11.078125 0 L 11.078125 -14.015625 L 8.96875 0 L 6.0625 0 L 3.765625 -13.828125 L 3.765625 0 L 1.09375 0 L 1.09375 -19.546875 L 5.359375 -19.546875 Z M 7.625 -5.671875 "/></g></g></g><g fill="#ff66c4" fill-opacity="1"><g transform="translate(181.067676, 226.270855)"><g><path d="M 1.109375 -19.546875 L 4.1875 -19.546875 L 4.1875 0 L 1.109375 0 Z M 1.109375 -19.546875 "/></g></g></g><g fill="#ff66c4" fill-opacity="1"><g transform="translate(190.281508, 226.270855)"><g><path d="M 3.859375 -14.15625 L 3.859375 0 L 1.09375 0 L 1.09375 -19.546875 L 4.9375 -19.546875 L 8.09375 -7.84375 L 8.09375 -19.546875 L 10.828125 -19.546875 L 10.828125 0 L 7.671875 0 Z M 3.859375 -14.15625 "/></g></g></g><g fill="#ff66c4" fill-opacity="1"><g transform="translate(206.110974, 226.270855)"><g><path d="M 5.71875 -10.890625 L 10.03125 -10.890625 L 10.03125 -4.6875 C 10.03125 -3.101562 9.640625 -1.890625 8.859375 -1.046875 C 8.085938 -0.203125 6.945312 0.21875 5.4375 0.21875 C 3.9375 0.21875 2.796875 -0.203125 2.015625 -1.046875 C 1.242188 -1.890625 0.859375 -3.101562 0.859375 -4.6875 L 0.859375 -14.859375 C 0.859375 -16.441406 1.242188 -17.65625 2.015625 -18.5 C 2.796875 -19.34375 3.9375 -19.765625 5.4375 -19.765625 C 6.945312 -19.765625 8.085938 -19.34375 8.859375 -18.5 C 9.640625 -17.65625 10.03125 -16.441406 10.03125 -14.859375 L 10.03125 -12.953125 L 7.125 -12.953125 L 7.125 -15.046875 C 7.125 -15.753906 6.976562 -16.25 6.6875 -16.53125 C 6.394531 -16.820312 6.007812 -16.96875 5.53125 -16.96875 C 5.039062 -16.96875 4.648438 -16.820312 4.359375 -16.53125 C 4.078125 -16.25 3.9375 -15.753906 3.9375 -15.046875 L 3.9375 -4.5 C 3.9375 -3.789062 4.078125 -3.296875 4.359375 -3.015625 C 4.648438 -2.734375 5.039062 -2.59375 5.53125 -2.59375 C 6.007812 -2.59375 6.394531 -2.734375 6.6875 -3.015625 C 6.976562 -3.296875 7.125 -3.789062 7.125 -4.5 L 7.125 -8.09375 L 5.71875 -8.09375 Z M 5.71875 -10.890625 "/></g></g></g><g fill="#ff66c4" fill-opacity="1"><g transform="translate(220.907618, 226.270855)"><g><path d="M 5.75 -19.546875 C 7.351562 -19.546875 8.507812 -19.171875 9.21875 -18.421875 C 9.9375 -17.679688 10.296875 -16.554688 10.296875 -15.046875 L 10.296875 -14.359375 C 10.296875 -13.347656 10.140625 -12.515625 9.828125 -11.859375 C 9.515625 -11.210938 9.015625 -10.734375 8.328125 -10.421875 C 9.160156 -10.097656 9.75 -9.578125 10.09375 -8.859375 C 10.4375 -8.148438 10.609375 -7.273438 10.609375 -6.234375 L 10.609375 -4.640625 C 10.609375 -3.128906 10.21875 -1.976562 9.4375 -1.1875 C 8.65625 -0.394531 7.492188 0 5.953125 0 L 1.109375 0 L 1.109375 -19.546875 Z M 4.1875 -8.796875 L 4.1875 -2.796875 L 5.953125 -2.796875 C 6.472656 -2.796875 6.863281 -2.929688 7.125 -3.203125 C 7.394531 -3.484375 7.53125 -3.988281 7.53125 -4.71875 L 7.53125 -6.421875 C 7.53125 -7.335938 7.378906 -7.960938 7.078125 -8.296875 C 6.773438 -8.628906 6.269531 -8.796875 5.5625 -8.796875 Z M 4.1875 -16.75 L 4.1875 -11.59375 L 5.390625 -11.59375 C 5.960938 -11.59375 6.410156 -11.738281 6.734375 -12.03125 C 7.066406 -12.332031 7.234375 -12.875 7.234375 -13.65625 L 7.234375 -14.75 C 7.234375 -15.445312 7.109375 -15.953125 6.859375 -16.265625 C 6.609375 -16.585938 6.210938 -16.75 5.671875 -16.75 Z M 4.1875 -16.75 "/></g></g></g><g fill="#ff66c4" fill-opacity="1"><g transform="translate(236.150895, 226.270855)"><g><path d="M 1.109375 -19.546875 L 4.1875 -19.546875 L 4.1875 0 L 1.109375 0 Z M 1.109375 -19.546875 "/></g></g></g><g fill="#ff66c4" fill-opacity="1"><g transform="translate(245.364727, 226.270855)"><g><path d="M 7.53125 0 C 7.5 -0.132812 7.460938 -0.253906 7.421875 -0.359375 C 7.390625 -0.472656 7.359375 -0.613281 7.328125 -0.78125 C 7.296875 -0.945312 7.273438 -1.160156 7.265625 -1.421875 C 7.265625 -1.679688 7.265625 -2.007812 7.265625 -2.40625 L 7.265625 -5.46875 C 7.265625 -6.382812 7.101562 -7.023438 6.78125 -7.390625 C 6.46875 -7.765625 5.957031 -7.953125 5.25 -7.953125 L 4.1875 -7.953125 L 4.1875 0 L 1.109375 0 L 1.109375 -19.546875 L 5.75 -19.546875 C 7.351562 -19.546875 8.507812 -19.171875 9.21875 -18.421875 C 9.9375 -17.679688 10.296875 -16.554688 10.296875 -15.046875 L 10.296875 -13.515625 C 10.296875 -11.503906 9.628906 -10.179688 8.296875 -9.546875 C 9.078125 -9.234375 9.609375 -8.71875 9.890625 -8 C 10.179688 -7.28125 10.328125 -6.410156 10.328125 -5.390625 L 10.328125 -2.375 C 10.328125 -1.882812 10.34375 -1.457031 10.375 -1.09375 C 10.414062 -0.738281 10.515625 -0.375 10.671875 0 Z M 4.1875 -16.75 L 4.1875 -10.75 L 5.390625 -10.75 C 5.960938 -10.75 6.410156 -10.894531 6.734375 -11.1875 C 7.066406 -11.488281 7.234375 -12.03125 7.234375 -12.8125 L 7.234375 -14.75 C 7.234375 -15.445312 7.109375 -15.953125 6.859375 -16.265625 C 6.609375 -16.585938 6.210938 -16.75 5.671875 -16.75 Z M 4.1875 -16.75 "/></g></g></g><g fill="#ff66c4" fill-opacity="1"><g transform="translate(260.496345, 226.270855)"><g><path d="M 1.109375 -19.546875 L 5.96875 -19.546875 C 7.519531 -19.546875 8.671875 -19.132812 9.421875 -18.3125 C 10.171875 -17.5 10.546875 -16.300781 10.546875 -14.71875 L 10.546875 -4.828125 C 10.546875 -3.242188 10.171875 -2.039062 9.421875 -1.21875 C 8.671875 -0.40625 7.519531 0 5.96875 0 L 1.109375 0 Z M 4.1875 -16.75 L 4.1875 -2.796875 L 5.921875 -2.796875 C 6.398438 -2.796875 6.78125 -2.929688 7.0625 -3.203125 C 7.34375 -3.484375 7.484375 -3.976562 7.484375 -4.6875 L 7.484375 -14.859375 C 7.484375 -15.566406 7.34375 -16.054688 7.0625 -16.328125 C 6.78125 -16.609375 6.398438 -16.75 5.921875 -16.75 Z M 4.1875 -16.75 "/></g></g></g><g fill="#5ce1e6" fill-opacity="1"><g transform="translate(137.188736, 247.338939)"><g><path d="M 7.601562 -8.996094 C 6.664062 -9.230469 6.011719 -9.316406 5.359375 -9.316406 C 2.449219 -9.316406 0.28125 -7.320312 0.28125 -4.410156 C 0.28125 -1.871094 2.28125 0.332031 5.128906 0.332031 C 6.535156 0.332031 7.5 -0.117188 8.714844 -0.9375 C 8.984375 -0.703125 9.0625 -0.667969 9.34375 -0.5 L 9.585938 -0.910156 C 8.664062 -1.667969 7.753906 -2.792969 7.152344 -3.921875 L 6.703125 -3.691406 C 6.804688 -3.421875 6.84375 -3.34375 7.035156 -3.023438 C 6.511719 -2.628906 6.050781 -2.421875 5.410156 -2.421875 C 4.113281 -2.421875 3.230469 -3.371094 3.230469 -4.589844 C 3.230469 -5.910156 4.164062 -6.78125 5.433594 -6.78125 C 6.050781 -6.78125 6.484375 -6.640625 6.972656 -6.371094 C 6.945312 -5.78125 6.972656 -6.023438 6.972656 -5.5625 L 7.472656 -5.5625 C 7.550781 -7.203125 7.765625 -8.101562 8.371094 -9.332031 L 7.960938 -9.574219 C 7.804688 -9.371094 7.742188 -9.28125 7.601562 -8.996094 Z M 7.601562 -8.996094 "/></g></g></g><g fill="#5ce1e6" fill-opacity="1"><g transform="translate(150.513956, 247.338939)"><g><path d="M 2.679688 0 C 3.488281 0 4.039062 0.0625 4.753906 0.191406 L 4.792969 -0.347656 C 4.550781 -0.4375 4.472656 -0.472656 4.179688 -0.527344 C 3.960938 -1.589844 3.910156 -2.332031 3.910156 -3.292969 L 6.523438 -3.292969 C 6.523438 -2.28125 6.535156 -1.5625 6.394531 -0.628906 C 6.113281 -0.5625 6.035156 -0.550781 5.742188 -0.421875 L 5.769531 0.152344 C 6.714844 0.0273438 7.140625 0 8.523438 0 C 9.316406 0 9.652344 0.0117188 10.242188 0.0507812 L 10.28125 -0.472656 C 9.960938 -0.550781 9.871094 -0.550781 9.585938 -0.601562 C 9.332031 -1.78125 9.265625 -3.152344 9.265625 -5.742188 C 9.265625 -7.332031 9.304688 -7.882812 9.484375 -8.550781 C 9.804688 -8.574219 9.871094 -8.574219 10.125 -8.652344 L 10.101562 -9.175781 C 9.550781 -9.101562 8.84375 -8.984375 7.34375 -8.984375 C 6.484375 -8.984375 6.152344 -9.023438 5.601562 -9.140625 L 5.625 -8.652344 C 5.910156 -8.550781 5.984375 -8.523438 6.253906 -8.496094 C 6.445312 -7.152344 6.484375 -6.769531 6.511719 -5.949219 L 3.820312 -5.949219 C 3.820312 -7.535156 3.84375 -7.910156 4.023438 -8.550781 C 4.332031 -8.585938 4.394531 -8.613281 4.652344 -8.703125 L 4.601562 -9.191406 C 4.394531 -9.140625 3.628906 -8.972656 1.667969 -8.972656 C 1.039062 -8.972656 0.550781 -9.023438 0.128906 -9.101562 L 0.140625 -8.640625 C 0.410156 -8.574219 0.488281 -8.5625 0.769531 -8.496094 C 1.011719 -6.933594 1.152344 -5.410156 1.152344 -3.910156 C 1.152344 -2.511719 1.039062 -1.511719 0.808594 -0.472656 C 0.5 -0.4375 0.421875 -0.421875 0.191406 -0.347656 L 0.191406 0.230469 C 1.152344 0.078125 1.78125 0 2.679688 0 Z M 2.679688 0 "/></g></g></g><g fill="#5ce1e6" fill-opacity="1"><g transform="translate(164.915104, 247.338939)"><g><path d="M 0.808594 -8.5625 C 0.960938 -7.765625 1.152344 -6.5 1.152344 -3.488281 C 1.152344 -2.308594 1.089844 -1.382812 0.960938 -0.527344 C 0.703125 -0.460938 0.628906 -0.4375 0.320312 -0.332031 L 0.410156 0.152344 C 1.191406 0.0507812 1.640625 0 2.398438 0 C 3.179688 0 3.859375 0.0625 4.730469 0.191406 L 4.753906 -0.292969 C 4.5 -0.410156 4.433594 -0.4375 4.140625 -0.5 C 3.898438 -2.398438 3.792969 -3.640625 3.792969 -4.730469 C 3.792969 -5.230469 3.792969 -5.421875 4.023438 -8.5625 C 4.320312 -8.613281 4.382812 -8.640625 4.652344 -8.714844 L 4.640625 -9.230469 C 3.960938 -9.0625 3.332031 -8.984375 2.398438 -8.984375 C 1.703125 -8.984375 1.101562 -9.035156 0.269531 -9.125 L 0.269531 -8.625 C 0.5 -8.585938 0.5625 -8.585938 0.808594 -8.5625 Z M 0.808594 -8.5625 "/></g></g></g><g fill="#5ce1e6" fill-opacity="1"><g transform="translate(173.846963, 247.338939)"><g><path d="M 0.847656 -8.496094 C 1.089844 -7.410156 1.152344 -6.304688 1.152344 -4.5 C 1.152344 -3.089844 1.140625 -1.859375 0.972656 -0.410156 C 0.550781 -0.359375 0.617188 -0.347656 0.269531 -0.269531 L 0.292969 0.332031 C 1.898438 0.0898438 2.871094 0 3.921875 0 C 4.753906 0 5.472656 0.0507812 6.332031 0.152344 C 6.460938 0.410156 6.484375 0.472656 6.574219 0.679688 L 7.140625 0.601562 C 6.945312 -0.191406 6.871094 -0.808594 6.871094 -1.601562 C 6.871094 -2.410156 6.945312 -3.039062 7.140625 -3.882812 L 6.574219 -3.921875 C 6.5 -3.574219 6.460938 -3.5 6.394531 -3.140625 C 5.714844 -2.808594 5.28125 -2.691406 3.960938 -2.550781 C 3.960938 -7.125 3.960938 -7.460938 4.179688 -8.550781 C 4.5 -8.613281 4.589844 -8.613281 4.910156 -8.703125 L 4.859375 -9.242188 C 4.023438 -9.0625 3.371094 -8.984375 2.488281 -8.984375 C 1.792969 -8.984375 1.167969 -9.035156 0.269531 -9.125 L 0.230469 -8.574219 C 0.527344 -8.523438 0.460938 -8.511719 0.847656 -8.496094 Z M 0.847656 -8.496094 "/></g></g></g><g fill="#5ce1e6" fill-opacity="1"><g transform="translate(185.302126, 247.338939)"><g><path d="M 2.472656 0 C 3 0 4.753906 0.140625 5.128906 0.140625 C 7.625 0.140625 9.40625 -2.101562 9.40625 -4.730469 C 9.40625 -7.523438 7.675781 -9.125 5.074219 -9.125 C 4.140625 -9.125 3.039062 -8.984375 1.972656 -8.984375 C 1.359375 -8.984375 0.871094 -9.035156 0.207031 -9.113281 L 0.207031 -8.625 C 0.5 -8.574219 0.589844 -8.5625 0.832031 -8.523438 C 1.050781 -6.84375 1.152344 -5.550781 1.152344 -4.164062 C 1.152344 -2.882812 1.078125 -1.757812 0.910156 -0.421875 C 0.5625 -0.382812 0.488281 -0.382812 0.191406 -0.320312 L 0.21875 0.152344 C 2.128906 0 2.128906 0 2.472656 0 Z M 6.421875 -4.71875 C 6.421875 -3.613281 5.664062 -2.753906 4.449219 -2.753906 C 4.269531 -2.753906 4.140625 -2.769531 3.882812 -2.859375 C 3.859375 -3.164062 3.792969 -3.984375 3.792969 -5.023438 C 3.792969 -5.679688 3.792969 -5.871094 3.898438 -6.460938 C 4.179688 -6.523438 4.34375 -6.5625 4.613281 -6.5625 C 5.574219 -6.5625 6.421875 -5.960938 6.421875 -4.71875 Z M 6.421875 -4.71875 "/></g></g></g><g fill="#5ce1e6" fill-opacity="1"><g transform="translate(198.973174, 247.338939)"><g><path d="M 7.601562 -8.996094 C 6.664062 -9.230469 6.011719 -9.316406 5.359375 -9.316406 C 2.449219 -9.316406 0.28125 -7.320312 0.28125 -4.410156 C 0.28125 -1.871094 2.28125 0.332031 5.128906 0.332031 C 6.535156 0.332031 7.5 -0.117188 8.714844 -0.9375 C 8.984375 -0.703125 9.0625 -0.667969 9.34375 -0.5 L 9.585938 -0.910156 C 8.664062 -1.667969 7.753906 -2.792969 7.152344 -3.921875 L 6.703125 -3.691406 C 6.804688 -3.421875 6.84375 -3.34375 7.035156 -3.023438 C 6.511719 -2.628906 6.050781 -2.421875 5.410156 -2.421875 C 4.113281 -2.421875 3.230469 -3.371094 3.230469 -4.589844 C 3.230469 -5.910156 4.164062 -6.78125 5.433594 -6.78125 C 6.050781 -6.78125 6.484375 -6.640625 6.972656 -6.371094 C 6.945312 -5.78125 6.972656 -6.023438 6.972656 -5.5625 L 7.472656 -5.5625 C 7.550781 -7.203125 7.765625 -8.101562 8.371094 -9.332031 L 7.960938 -9.574219 C 7.804688 -9.371094 7.742188 -9.28125 7.601562 -8.996094 Z M 7.601562 -8.996094 "/></g></g></g><g fill="#5ce1e6" fill-opacity="1"><g transform="translate(212.298393, 247.338939)"><g><path d="M 3.292969 1.101562 L 3.613281 0.808594 C 3.433594 0.628906 3.382812 0.601562 3.230469 0.472656 C 3.410156 -0.21875 3.472656 -0.421875 3.613281 -0.808594 L 6.871094 -0.808594 C 7.050781 -0.410156 7.113281 -0.207031 7.292969 0.527344 C 7.152344 0.667969 7.125 0.691406 6.984375 0.832031 L 7.265625 1.179688 C 8.523438 0.117188 9.652344 -0.472656 10.714844 -0.679688 L 10.652344 -1.113281 C 10.433594 -1.101562 10.371094 -1.089844 10.136719 -1.011719 C 7.691406 -4.34375 6.023438 -7.152344 5.128906 -9.253906 L 4.792969 -9.253906 C 4.511719 -8.472656 2.421875 -3.921875 2.0625 -3.164062 C 1.398438 -1.808594 1.050781 -1.179688 0.601562 -0.601562 C 0.359375 -0.640625 0.292969 -0.640625 0.078125 -0.667969 L 0.0117188 -0.269531 C 1.523438 0 2.539062 0.4375 3.292969 1.101562 Z M 5.960938 -2.859375 L 4.269531 -2.859375 L 5.089844 -4.792969 Z M 5.960938 -2.859375 "/></g></g></g><g fill="#5ce1e6" fill-opacity="1"><g transform="translate(226.789193, 247.338939)"><g><path d="M 0.808594 -8.511719 C 1.011719 -7.625 1.152344 -6.242188 1.152344 -3.933594 C 1.152344 -2.601562 1.050781 -1.5625 0.871094 -0.4375 C 0.550781 -0.410156 0.488281 -0.398438 0.21875 -0.332031 L 0.28125 0.207031 C 1.101562 0.0625 1.757812 0 2.589844 0 C 3.164062 0 3.78125 0.0507812 4.703125 0.128906 L 4.703125 -0.382812 C 4.410156 -0.421875 4.382812 -0.4375 4.050781 -0.488281 C 3.832031 -1.230469 3.769531 -1.921875 3.769531 -3.292969 C 4.664062 -2.5625 5.359375 -1.703125 6.304688 0.0898438 C 6.125 0.28125 6.101562 0.347656 6.011719 0.550781 L 6.460938 0.882812 C 7.179688 -0.179688 8.292969 -1.230469 9.34375 -1.871094 L 9.074219 -2.332031 C 8.871094 -2.21875 8.832031 -2.203125 8.652344 -2.101562 C 8.035156 -2.472656 7.675781 -2.769531 7.035156 -3.511719 C 8.085938 -4.449219 8.550781 -5.203125 8.550781 -6.230469 C 8.550781 -8.011719 6.972656 -9.242188 4.664062 -9.242188 C 3.421875 -9.242188 2.832031 -8.984375 1.703125 -8.984375 C 1.242188 -8.984375 0.820312 -9.023438 0.117188 -9.125 L 0.078125 -8.613281 C 0.410156 -8.5625 0.410156 -8.574219 0.808594 -8.511719 Z M 3.71875 -4.511719 C 3.769531 -5.679688 3.792969 -5.5 3.832031 -6.664062 C 4.84375 -6.640625 5.371094 -6.460938 5.371094 -5.742188 C 5.371094 -4.921875 4.679688 -4.539062 3.71875 -4.511719 Z M 3.71875 -4.511719 "/></g></g></g><g fill="#5ce1e6" fill-opacity="1"><g transform="translate(239.602066, 247.338939)"><g><path d="M 4.269531 0 C 4.984375 0 5.472656 0.0117188 6.179688 0.0625 C 6.242188 0.320312 6.253906 0.382812 6.382812 0.640625 L 6.945312 0.589844 C 6.742188 -0.0898438 6.640625 -0.691406 6.640625 -1.71875 C 6.640625 -2.589844 6.703125 -3 6.84375 -3.589844 L 6.433594 -3.742188 C 6.230469 -3.242188 6.179688 -3.089844 6.050781 -2.523438 L 3.628906 -2.421875 L 3.679688 -3.589844 L 5.0625 -3.574219 C 5.140625 -3.28125 5.164062 -3.203125 5.28125 -2.949219 L 5.714844 -3.039062 C 5.539062 -3.820312 5.433594 -4.320312 5.433594 -4.871094 C 5.433594 -5.230469 5.5 -5.5625 5.613281 -6.023438 L 5.191406 -6.089844 C 5.113281 -5.921875 5.089844 -5.894531 5.023438 -5.691406 L 3.613281 -5.714844 L 3.652344 -6.601562 L 6.332031 -6.589844 C 6.421875 -6.304688 6.433594 -6.242188 6.523438 -6.011719 L 7.011719 -6.113281 C 6.804688 -6.792969 6.703125 -7.382812 6.703125 -8.355469 C 6.703125 -8.894531 6.730469 -9.203125 6.792969 -9.675781 L 6.359375 -9.664062 C 6.28125 -9.445312 6.253906 -9.382812 6.214844 -9.113281 C 5.34375 -9.023438 4.679688 -8.984375 2.589844 -8.984375 C 1.398438 -8.984375 0.757812 -9.035156 0.230469 -9.101562 L 0.21875 -8.652344 C 0.472656 -8.585938 0.539062 -8.585938 0.769531 -8.5625 C 1.027344 -7.179688 1.152344 -6.074219 1.152344 -5 C 1.152344 -4.050781 1.101562 -2.808594 0.949219 -0.347656 C 0.640625 -0.320312 0.5625 -0.292969 0.269531 -0.257812 L 0.230469 0.207031 C 1.859375 0.0625 3.023438 0 4.269531 0 Z M 4.269531 0 "/></g></g></g></svg>